<?xml version="1.0" encoding="utf-8"?>
<!-- Generator: Adobe Illustrator 25.2.0, SVG Export Plug-In . SVG Version: 6.00 Build 0)  -->
<svg version="1.1" id="Layer_1" xmlns="http://www.w3.org/2000/svg" xmlns:xlink="http://www.w3.org/1999/xlink" x="0px" y="0px"
	 viewBox="0 0 1080 1080" style="enable-background:new 0 0 1080 1080;" xml:space="preserve">
<style type="text/css">
	.st0{display:none;}
	.st1{display:inline;fill:#001B48;}
	.st2{fill:#018ABE;}
	.st3{fill:#FFFFFF;}
	.st4{display:inline;fill:#808080;}
</style>
<g class="st0">
	<path class="st1" d="M470.5,446.9c0,27.8-0.3,55.6,0.2,83.4c0.1,8.4-2.3,11.1-10.9,11.3c-31.4,0.6-31.4,0.9-31.4-29.8
		c0-42.3,0-84.6,0-126.9c0-4.1,0.3-8.1,0.5-12.2c26.4-3.7,48.2-0.5,63.3,24.2c15.7,25.6,33.5,50,50.4,74.9
		c4.5,6.5,9.2,12.9,15.3,21.3c7.5-12.9,14.2-24.2,20.8-35.5c12.9-22,26.2-43.9,38.4-66.3c7.7-14.1,18.7-20.3,34.4-19.6
		c7.2,0.3,14.4,0.1,23.8,0.1c-2,4.4-3.2,7.7-4.9,10.7c-26.5,45.4-54.1,90.2-79.3,136.3c-17.9,32.9-49.2,27.3-64.9,2.5
		c-14.5-22.8-30.4-44.7-45.7-67c-2-3-4.5-5.6-6.8-8.4C472.5,446,471.5,446.4,470.5,446.9z"/>
</g>
<g>
	<g id="XMLID_544_">
		<path id="XMLID_1435_" class="st2" d="M521.3,545c0-4.4-3.3-8-7.5-8.4l0.9-132.5c1.4-0.5,2.6-1.6,2.6-3.3c0-1.9-1.6-3.5-3.5-3.5
			c-1.9,0-3.5,1.6-3.5,3.5c0,1.6,0.9,2.8,2.3,3.3l-0.9,132.5c-4.2,0.5-7.5,4-7.5,8.4c0,4.7,3.7,8.4,8.4,8.4
			C517.4,553.4,521.3,549.7,521.3,545z"/>
		<path id="XMLID_1449_" class="st2" d="M541.2,448.3c0,1.6,0.9,2.8,2.3,3.3l-0.2,49.4l22.2,22.7V534c-1.4,0.5-2.3,1.6-2.3,3.3
			c0,1.9,1.6,3.5,3.5,3.5s3.5-1.6,3.5-3.5c0-1.6-1.2-3-2.6-3.3v-11l-22.2-22.7l0.2-48.4c1.4-0.5,2.6-1.6,2.6-3.3
			c0-1.9-1.6-3.5-3.5-3.5S541.2,446.5,541.2,448.3z"/>
		<path id="XMLID_1452_" class="st2" d="M530.2,438.7c0,1.6,0.9,2.8,2.6,3.3l-0.5,62.7l24.3,24.6v4.4c-1.4,0.5-2.3,1.6-2.3,3.3
			c0,1.9,1.6,3.5,3.5,3.5s3.5-1.6,3.5-3.5c0-1.6-1.2-3-2.6-3.3v-5.1L534.4,504l0.5-62c1.4-0.5,2.6-1.6,2.6-3.3
			c0-1.9-1.6-3.5-3.5-3.5C531.9,435.2,530.2,436.6,530.2,438.7z"/>
		<path id="XMLID_1453_" class="st2" d="M519.9,409c0,1.6,0.9,2.8,2.3,3.3l-0.7,95.7l23.9,24.1v1.6c-1.4,0.5-2.6,1.6-2.6,3.3
			c0,1.9,1.6,3.5,3.5,3.5s3.5-1.6,3.5-3.5c0-1.6-0.9-2.8-2.3-3.3v-2.3l-23.9-24.1l0.7-94.8c1.4-0.5,2.6-1.6,2.6-3.3
			c0-1.9-1.6-3.5-3.5-3.5C521.6,405.5,519.9,407.1,519.9,409z"/>
		<path id="XMLID_1455_" class="st2" d="M461.7,536.6c0-1.6-1.2-3-2.6-3.3v-10.1l22.2-22l0.2-0.2l0.2-49.4c1.4-0.5,2.3-1.6,2.3-3.3
			c0-1.9-1.6-3.5-3.5-3.5c-1.9,0-3.5,1.6-3.5,3.5c0,1.6,0.9,2.8,2.6,3.3l-0.2,48.4l-22.2,22l-0.2,0.2v11c-1.4,0.5-2.3,1.6-2.3,3.3
			c0,1.9,1.6,3.5,3.5,3.5S461.7,538.4,461.7,536.6z"/>
		<path id="XMLID_1456_" class="st2" d="M470.8,536.6c0-1.6-1.2-3-2.8-3.5v-4.2l24.3-24.1l0.2-0.2l0.5-62.7c1.4-0.5,2.6-1.6,2.6-3.3
			c0-1.9-1.6-3.5-3.5-3.5s-3.5,1.6-3.5,3.5c0,1.6,0.9,2.8,2.3,3.3l-0.5,62l-24.3,24.1l-0.2,0.2v5.4c-1.2,0.5-2.1,1.6-2.1,3.3
			c0,1.9,1.6,3.5,3.5,3.5C469.1,540.1,470.8,538.4,470.8,536.6z"/>
		<path id="XMLID_1458_" class="st2" d="M481.8,536.6c0-1.6-1.2-3-2.8-3.5v-1.4l23.9-23.6l0.2-0.2l0.7-95.7c1.4-0.5,2.6-1.6,2.6-3.3
			c0-1.9-1.6-3.5-3.5-3.5c-1.9,0-3.5,1.6-3.5,3.5c0,1.6,0.9,2.8,2.3,3.3l-0.7,94.8l-23.9,23.6l-0.2,0.2v2.6c-1.2,0.5-2.1,1.6-2.1,3
			c0,1.9,1.6,3.5,3.5,3.5C480.4,540.1,481.8,538.4,481.8,536.6z"/>
	</g>
	<g>
		<g>
			<path class="st3" d="M163,411.1v129.7h-29.3l-60.1-75.4v75.4H41.6V411.1H71L131,487v-75.8H163z"/>
			<path class="st3" d="M202.6,426.8c12.9-12.4,29.7-18.7,50.3-18.7c20.6,0,37.2,6.3,50.3,18.7c13.1,12.4,19.4,28.8,19.4,48.9
				s-6.6,36.5-19.4,48.9c-12.9,12.4-29.7,18.7-50.3,18.7c-20.6,0-37.2-6.3-50.3-18.7c-12.9-12.4-19.4-28.8-19.4-48.9
				S189.5,439.4,202.6,426.8z M226.4,503.3c6.8,7,15.4,10.5,26.2,10.5c10.8,0,19.4-3.5,26.2-10.5c6.8-7,10.3-16.1,10.3-27.6
				c0-11.2-3.5-20.4-10.3-27.4c-6.8-7-15.4-10.5-26.2-10.5c-10.8,0-19.4,3.5-26.2,10.5c-6.8,7-10.3,16.1-10.3,27.4
				C216.4,487.2,219.7,496.3,226.4,503.3z"/>
			<path class="st3" d="M409,540.6h-32.1l-55-129.4h36.5l34.6,86.8l34.9-86.8h36.3L409,540.6z"/>
			<path class="st3" d="M625.3,499.6l-52.2-88.7h36l32.3,54.5l32.3-54.5h36l-52,88.7v41h-32.3v-41H625.3z"/>
			<path class="st2" d="M791.4,439.9v100.9h-32.3V439.9h-43.5v-28.8h119.1v28.8H791.4z"/>
			<path class="st2" d="M866.1,462.1h57.3v27.4h-57.3v23.2h66v28.1H834V411.1h98.1v28.1h-66V462.1z"/>
			<path class="st2" d="M962,497.3v43.5H930V411.1H962v54.8h6.3l42.4-54.8h38.9l-47,60.4l50.1,69.3h-39.3l-31.4-43.5L962,497.3
				L962,497.3z"/>
		</g>
		<g class="st0">
			<path class="st4" d="M301.3,635.3c0-1.4,1.2-2.6,2.6-2.6s2.6,1.2,2.6,2.6v27.1c0,1.4-1.2,2.6-2.6,2.6s-2.6-1.2-2.6-2.6V635.3z"/>
			<path class="st4" d="M357.7,637.9h-7.3v24.6c0,1.4-1.2,2.6-2.6,2.6s-2.6-1.2-2.6-2.6v-24.6h-7.3c-1.4,0-2.6-1.2-2.6-2.6
				c0-1.4,1.2-2.6,2.6-2.6h19.7c1.4,0,2.6,1.2,2.6,2.6C360.3,636.7,359.1,637.9,357.7,637.9z"/>
			<path class="st4" d="M426.6,656.9c0.9-0.9,2.3-1.2,3.3-0.2c2.1,1.6,5.6,3.5,8.9,3.5c2.3,0,4.4-0.7,5.9-1.6s1.9-2.1,1.9-3.3
				c0-0.7-0.2-0.9-0.5-1.4c-0.2-0.5-0.7-0.9-1.4-1.4c-1.4-0.9-3.5-1.6-6.3-2.1l0,0c-2.1-0.5-4.2-0.9-5.9-1.9
				c-1.6-0.9-3.3-1.9-4.2-3.5c-0.7-1.2-1.2-2.3-1.2-3.7c0-2.8,1.6-5.1,3.7-6.8c2.1-1.6,4.9-2.3,8-2.3c4.4,0,7.7,2.1,10.1,3.7
				c1.2,0.7,1.4,2.1,0.7,3.3c-0.7,1.2-2.1,1.4-3.3,0.7c-2.3-1.6-4.7-3-7.5-3c-2.1,0-4,0.7-5.1,1.6c-1.2,0.9-1.6,1.9-1.6,2.8
				c0,0.5,0,0.9,0.2,1.2c0.2,0.5,0.7,0.7,1.2,1.2c1.2,0.9,3.3,1.6,5.9,2.1l0,0c2.3,0.5,4.4,1.2,6.3,1.9c1.9,0.9,3.5,2.1,4.7,3.7
				c0.7,1.2,1.2,2.6,1.2,4c0,3-1.6,5.4-4,7c-2.3,1.6-5.1,2.6-8.4,2.6c-4.9,0-9.1-2.6-11.7-4.7C426.1,659.4,425.9,658,426.6,656.9z"
				/>
			<path class="st4" d="M506.8,636.7c2.8,3,4.7,7,4.7,11.7s-1.9,8.7-4.7,11.7c-2.8,3-6.8,4.9-11,4.9c-4.4,0-8.4-1.9-11.2-4.9
				c-2.8-3-4.4-7-4.4-11.7s1.6-8.7,4.4-11.7c2.8-3,6.8-4.9,11.2-4.9C500,631.8,504,633.7,506.8,636.7z M506.1,648.4c0-3-1.2-6.1-3-8
				c-1.9-2.1-4.4-3.3-7.3-3.3c-3,0-5.6,1.2-7.5,3.3c-1.9,2.1-3,4.9-3,8s1.2,6.1,3,8c1.9,2.1,4.4,3.3,7.5,3.3c2.8,0,5.4-1.2,7.3-3.3
				C505,654.5,506.1,651.5,506.1,648.4z"/>
			<path class="st4" d="M543.3,662.5v-27.1c0-1.4,1.2-2.6,2.6-2.6c1.4,0,2.6,1.2,2.6,2.6v24.6h12.4c1.4,0,2.6,1.2,2.6,2.6
				s-1.2,2.6-2.6,2.6h-15l0,0l0,0C544.5,665.1,543.3,663.9,543.3,662.5z"/>
			<path class="st4" d="M605.6,665.1c-7.5,0-13.3-6.1-13.3-13.3v-16.4c0-1.4,1.2-2.6,2.6-2.6s2.6,1.2,2.6,2.6v16.4
				c0,4.4,3.7,8.2,8.2,8.2c4.4,0,8.2-3.7,8.2-8.2v-16.4c0-1.4,1.2-2.6,2.6-2.6s2.6,1.2,2.6,2.6v16.4
				C618.9,659,613.1,665.1,605.6,665.1z"/>
			<path class="st4" d="M672.5,637.9h-7.3v24.6c0,1.4-1.2,2.6-2.6,2.6c-1.4,0-2.6-1.2-2.6-2.6v-24.6h-7.3c-1.4,0-2.6-1.2-2.6-2.6
				c0-1.4,1.2-2.6,2.6-2.6h19.7c1.4,0,2.6,1.2,2.6,2.6C675.1,636.7,673.9,637.9,672.5,637.9z"/>
			<path class="st4" d="M706,635.3c0-1.4,1.2-2.6,2.6-2.6c1.4,0,2.6,1.2,2.6,2.6v27.1c0,1.4-1.2,2.6-2.6,2.6c-1.4,0-2.6-1.2-2.6-2.6
				V635.3z"/>
			<path class="st4" d="M768,636.7c2.8,3,4.7,7,4.7,11.7s-1.9,8.7-4.7,11.7c-2.8,3-6.8,4.9-11,4.9c-4.4,0-8.4-1.9-11.2-4.9
				c-2.8-3-4.4-7-4.4-11.7s1.6-8.7,4.4-11.7c2.8-3,6.8-4.9,11.2-4.9C761.2,631.8,765.2,633.7,768,636.7z M767.3,648.4
				c0-3-1.2-6.1-3-8c-1.9-2.1-4.4-3.3-7.3-3.3c-3,0-5.6,1.2-7.5,3.3s-3,4.9-3,8s1.2,6.1,3,8c1.9,2.1,4.4,3.3,7.5,3.3
				c2.8,0,5.4-1.2,7.3-3.3C766.1,654.5,767.3,651.5,767.3,648.4z"/>
			<path class="st4" d="M809.7,662.5c0,1.4-1.2,2.6-2.6,2.6c-1.4,0-2.6-1.2-2.6-2.6v-26.7l0,0c0-0.7,0.2-1.6,0.9-2.1
				c1.2-0.7,2.8-0.5,3.5,0.5l14.7,20.6v-19c0-1.4,1.2-2.6,2.6-2.6s2.6,1.2,2.6,2.6v26.7c0,1.4-1.2,2.6-2.6,2.6
				c-0.7,0-1.4-0.5-1.9-0.9l-0.2-0.2l-14.7-20.4v19H809.7z"/>
		</g>
	</g>
</g>
<g id="Layer_2_1_">
</g>
</svg>
