<?xml version="1.0" encoding="utf-8"?>
<!-- Generator: Adobe Illustrator 25.2.0, SVG Export Plug-In . SVG Version: 6.00 Build 0)  -->
<svg version="1.1" id="Layer_1" xmlns="http://www.w3.org/2000/svg" xmlns:xlink="http://www.w3.org/1999/xlink" x="0px" y="0px"
	 viewBox="0 0 1080 1080" style="enable-background:new 0 0 1080 1080;" xml:space="preserve">
<style type="text/css">
	.st0{display:none;}
	.st1{display:inline;fill:#001B48;}
	.st2{fill:#018ABE;}
	.st3{fill:#001B48;}
	.st4{display:inline;fill:#808080;}
</style>
<g class="st0">
	<path class="st1" d="M470.5,446.9c0,27.8-0.3,55.6,0.2,83.4c0.1,8.4-2.3,11.1-10.9,11.3c-31.4,0.6-31.4,0.9-31.4-29.8
		c0-42.3,0-84.6,0-126.9c0-4.1,0.3-8.1,0.5-12.2c26.4-3.7,48.2-0.5,63.3,24.2c15.7,25.6,33.5,50,50.4,74.9
		c4.5,6.5,9.2,12.9,15.3,21.3c7.5-12.9,14.2-24.2,20.8-35.5c12.9-22,26.2-43.9,38.4-66.3c7.7-14.1,18.7-20.3,34.4-19.6
		c7.2,0.3,14.4,0.1,23.8,0.1c-2,4.4-3.2,7.7-4.9,10.7c-26.5,45.4-54.1,90.2-79.3,136.3c-17.9,32.9-49.2,27.3-64.9,2.5
		c-14.5-22.8-30.4-44.7-45.7-67c-2-3-4.5-5.6-6.8-8.4C472.5,446,471.5,446.4,470.5,446.9z"/>
</g>
<g>
	<g id="XMLID_544_">
		<path id="XMLID_1435_" class="st2" d="M521.1,573.3c0-4.2-3.1-7.4-7-7.9l0.9-123.9c1.3-0.4,2.4-1.5,2.4-3.1c0-1.8-1.5-3.3-3.3-3.3
			s-3.3,1.5-3.3,3.3c0,1.5,0.9,2.6,2.2,3.1l-0.9,123.9c-3.9,0.4-7,3.7-7,7.9c0,4.4,3.5,7.9,7.9,7.9
			C517.4,581.2,521.1,577.7,521.1,573.3z"/>
		<path id="XMLID_1449_" class="st2" d="M539.7,482.9c0,1.5,0.9,2.6,2.2,3.1l-0.2,46.2l20.8,21.2v9.6c-1.3,0.4-2.2,1.5-2.2,3.1
			c0,1.8,1.5,3.3,3.3,3.3c1.8,0,3.3-1.5,3.3-3.3c0-1.5-1.1-2.8-2.4-3.1v-10.3l-20.8-21.2l0.2-45.3c1.3-0.4,2.4-1.5,2.4-3.1
			c0-1.8-1.5-3.3-3.3-3.3S539.7,481.1,539.7,482.9z"/>
		<path id="XMLID_1452_" class="st2" d="M529.4,473.9c0,1.5,0.9,2.6,2.4,3.1l-0.4,58.7l22.8,23v4.2c-1.3,0.4-2.2,1.5-2.2,3.1
			c0,1.8,1.5,3.3,3.3,3.3c1.8,0,3.3-1.5,3.3-3.3c0-1.5-1.1-2.8-2.4-3.1V558l-22.8-23l0.4-58c1.3-0.4,2.4-1.5,2.4-3.1
			c0-1.8-1.5-3.3-3.3-3.3C530.9,470.6,529.4,471.9,529.4,473.9z"/>
		<path id="XMLID_1453_" class="st2" d="M519.8,446.1c0,1.5,0.9,2.6,2.2,3.1l-0.7,89.5l22.3,22.5v1.5c-1.3,0.4-2.4,1.5-2.4,3.1
			c0,1.8,1.5,3.3,3.3,3.3s3.3-1.5,3.3-3.3c0-1.5-0.9-2.6-2.2-3.1v-2.2l-22.3-22.5l0.7-88.7c1.3-0.4,2.4-1.5,2.4-3.1
			c0-1.8-1.5-3.3-3.3-3.3C521.3,442.8,519.8,444.4,519.8,446.1z"/>
		<path id="XMLID_1455_" class="st2" d="M465.3,565.4c0-1.5-1.1-2.8-2.4-3.1v-9.4l20.8-20.6l0.2-0.2l0.2-46.2
			c1.3-0.4,2.2-1.5,2.2-3.1c0-1.8-1.5-3.3-3.3-3.3c-1.8,0-3.3,1.5-3.3,3.3c0,1.5,0.9,2.6,2.4,3.1l-0.2,45.3l-20.8,20.6l-0.2,0.2
			v10.3c-1.3,0.4-2.2,1.5-2.2,3.1c0,1.8,1.5,3.3,3.3,3.3S465.3,567.2,465.3,565.4z"/>
		<path id="XMLID_1456_" class="st2" d="M473.8,565.4c0-1.5-1.1-2.8-2.6-3.3v-3.9l22.8-22.5l0.2-0.2l0.4-58.7
			c1.3-0.4,2.4-1.5,2.4-3.1c0-1.8-1.5-3.3-3.3-3.3c-1.8,0-3.3,1.5-3.3,3.3c0,1.5,0.9,2.6,2.2,3.1l-0.4,58l-22.8,22.5l-0.2,0.2v5
			c-1.1,0.4-2,1.5-2,3.1c0,1.8,1.5,3.3,3.3,3.3C472.3,568.7,473.8,567.2,473.8,565.4z"/>
		<path id="XMLID_1458_" class="st2" d="M484.1,565.4c0-1.5-1.1-2.8-2.6-3.3v-1.3l22.3-22.1l0.2-0.2l0.7-89.5
			c1.3-0.4,2.4-1.5,2.4-3.1c0-1.8-1.5-3.3-3.3-3.3s-3.3,1.5-3.3,3.3c0,1.5,0.9,2.6,2.2,3.1l-0.7,88.7l-22.3,22.1l-0.2,0.2v2.4
			c-1.1,0.4-2,1.5-2,2.8c0,1.8,1.5,3.3,3.3,3.3C482.8,568.7,484.1,567.2,484.1,565.4z"/>
	</g>
	<g>
		<g>
			<path class="st3" d="M185.9,448.1v121.3h-27.4l-56.3-70.5v70.5h-30V448.1h27.6l56,70.9v-70.9H185.9z"/>
			<path class="st3" d="M222.9,462.7c12-11.6,27.8-17.5,47.1-17.5s34.8,5.9,47.1,17.5c12.3,11.6,18.2,26.9,18.2,45.8
				c0,18.8-6.1,34.2-18.2,45.8c-12,11.6-27.8,17.5-47.1,17.5s-34.8-5.9-47.1-17.5c-12-11.6-18.2-26.9-18.2-45.8
				C204.8,489.7,210.7,474.6,222.9,462.7z M245.3,534.3c6.3,6.6,14.4,9.9,24.5,9.9c10.1,0,18.2-3.3,24.5-9.9
				c6.3-6.6,9.6-15.1,9.6-25.8c0-10.5-3.3-19-9.6-25.6c-6.3-6.6-14.4-9.9-24.5-9.9c-10.1,0-18.2,3.3-24.5,9.9
				c-6.3,6.6-9.6,15.1-9.6,25.6C235.8,519.2,238.9,527.8,245.3,534.3z"/>
			<path class="st3" d="M416,569.1h-30l-51.4-121.1h34.2l32.4,81.2l32.6-81.2h33.9L416,569.1z"/>
			<path class="st3" d="M618.3,530.8l-48.8-83h33.7l30.2,51l30.2-51h33.7l-48.6,83v38.3h-30.2v-38.3H618.3z"/>
			<path class="st2" d="M773.7,475v94.4h-30.2V475h-40.7v-26.9h111.4V475H773.7z"/>
			<path class="st2" d="M843.5,495.8h53.6v25.6h-53.6v21.7h61.7v26.3h-91.7V448.1h91.7v26.3h-61.7V495.8z"/>
			<path class="st2" d="M933.3,528.6v40.7h-30V448.1h30v51.2h5.9l39.6-51.2h36.3l-44,56.5l46.8,64.8h-36.8l-29.3-40.7L933.3,528.6
				L933.3,528.6z"/>
		</g>
		<g class="st0">
			<path class="st4" d="M315.3,657.8c0-1.3,1.1-2.4,2.4-2.4c1.3,0,2.4,1.1,2.4,2.4v25.4c0,1.3-1.1,2.4-2.4,2.4
				c-1.3,0-2.4-1.1-2.4-2.4V657.8z"/>
			<path class="st4" d="M368.1,660.2h-6.8v23c0,1.3-1.1,2.4-2.4,2.4c-1.3,0-2.4-1.1-2.4-2.4v-23h-6.8c-1.3,0-2.4-1.1-2.4-2.4
				s1.1-2.4,2.4-2.4h18.4c1.3,0,2.4,1.1,2.4,2.4C370.5,659.1,369.4,660.2,368.1,660.2z"/>
			<path class="st4" d="M432.4,677.9c0.9-0.9,2.2-1.1,3.1-0.2c2,1.5,5.3,3.3,8.3,3.3c2.2,0,4.2-0.7,5.5-1.5c1.3-0.9,1.8-2,1.8-3.1
				c0-0.7-0.2-0.9-0.4-1.3c-0.2-0.4-0.7-0.9-1.3-1.3c-1.3-0.9-3.3-1.5-5.9-2l0,0c-2-0.4-3.9-0.9-5.5-1.8c-1.5-0.9-3.1-1.8-3.9-3.3
				c-0.7-1.1-1.1-2.2-1.1-3.5c0-2.6,1.5-4.8,3.5-6.3c2-1.5,4.6-2.2,7.4-2.2c4.2,0,7.2,2,9.4,3.5c1.1,0.7,1.3,2,0.7,3.1
				c-0.7,1.1-2,1.3-3.1,0.7c-2.2-1.5-4.4-2.8-7-2.8c-2,0-3.7,0.7-4.8,1.5c-1.1,0.9-1.5,1.8-1.5,2.6c0,0.4,0,0.9,0.2,1.1
				c0.2,0.4,0.7,0.7,1.1,1.1c1.1,0.9,3.1,1.5,5.5,2l0,0c2.2,0.4,4.2,1.1,5.9,1.8c1.8,0.9,3.3,2,4.4,3.5c0.7,1.1,1.1,2.4,1.1,3.7
				c0,2.8-1.5,5-3.7,6.6s-4.8,2.4-7.9,2.4c-4.6,0-8.5-2.4-10.9-4.4C432,680.3,431.8,679,432.4,677.9z"/>
			<path class="st4" d="M507.5,659.1c2.6,2.8,4.4,6.6,4.4,10.9c0,4.4-1.8,8.1-4.4,10.9c-2.6,2.8-6.3,4.6-10.3,4.6
				c-4.2,0-7.9-1.8-10.5-4.6c-2.6-2.8-4.2-6.6-4.2-10.9c0-4.4,1.5-8.1,4.2-10.9c2.6-2.8,6.3-4.6,10.5-4.6
				C501.2,654.5,504.9,656.3,507.5,659.1z M506.9,670.1c0-2.8-1.1-5.7-2.8-7.4c-1.8-2-4.2-3.1-6.8-3.1c-2.8,0-5.3,1.1-7,3.1
				c-1.8,2-2.8,4.6-2.8,7.4c0,2.8,1.1,5.7,2.8,7.4c1.8,2,4.2,3.1,7,3.1c2.6,0,5-1.1,6.8-3.1C505.8,675.7,506.9,672.9,506.9,670.1z"
				/>
			<path class="st4" d="M541.7,683.2v-25.4c0-1.3,1.1-2.4,2.4-2.4s2.4,1.1,2.4,2.4v23h11.6c1.3,0,2.4,1.1,2.4,2.4s-1.1,2.4-2.4,2.4
				h-14l0,0l0,0C542.8,685.6,541.7,684.5,541.7,683.2z"/>
			<path class="st4" d="M599.9,685.6c-7,0-12.5-5.7-12.5-12.5v-15.3c0-1.3,1.1-2.4,2.4-2.4s2.4,1.1,2.4,2.4v15.3
				c0,4.2,3.5,7.7,7.7,7.7c4.2,0,7.7-3.5,7.7-7.7v-15.3c0-1.3,1.1-2.4,2.4-2.4s2.4,1.1,2.4,2.4v15.3
				C612.4,679.9,606.9,685.6,599.9,685.6z"/>
			<path class="st4" d="M662.5,660.2h-6.8v23c0,1.3-1.1,2.4-2.4,2.4s-2.4-1.1-2.4-2.4v-23h-6.8c-1.3,0-2.4-1.1-2.4-2.4
				s1.1-2.4,2.4-2.4h18.4c1.3,0,2.4,1.1,2.4,2.4C664.9,659.1,663.8,660.2,662.5,660.2z"/>
			<path class="st4" d="M693.8,657.8c0-1.3,1.1-2.4,2.4-2.4s2.4,1.1,2.4,2.4v25.4c0,1.3-1.1,2.4-2.4,2.4s-2.4-1.1-2.4-2.4V657.8z"/>
			<path class="st4" d="M751.8,659.1c2.6,2.8,4.4,6.6,4.4,10.9c0,4.4-1.8,8.1-4.4,10.9c-2.6,2.8-6.3,4.6-10.3,4.6
				c-4.2,0-7.9-1.8-10.5-4.6c-2.6-2.8-4.2-6.6-4.2-10.9c0-4.4,1.5-8.1,4.2-10.9s6.3-4.6,10.5-4.6
				C745.5,654.5,749.2,656.3,751.8,659.1z M751.2,670.1c0-2.8-1.1-5.7-2.8-7.4c-1.8-2-4.2-3.1-6.8-3.1c-2.8,0-5.3,1.1-7,3.1
				s-2.8,4.6-2.8,7.4c0,2.8,1.1,5.7,2.8,7.4c1.8,2,4.2,3.1,7,3.1c2.6,0,5-1.1,6.8-3.1C750.1,675.7,751.2,672.9,751.2,670.1z"/>
			<path class="st4" d="M790.8,683.2c0,1.3-1.1,2.4-2.4,2.4s-2.4-1.1-2.4-2.4v-25l0,0c0-0.7,0.2-1.5,0.9-2c1.1-0.7,2.6-0.4,3.3,0.4
				l13.8,19.3v-17.7c0-1.3,1.1-2.4,2.4-2.4s2.4,1.1,2.4,2.4v25c0,1.3-1.1,2.4-2.4,2.4c-0.7,0-1.3-0.4-1.8-0.9l-0.2-0.2l-13.8-19
				v17.7H790.8z"/>
		</g>
	</g>
</g>
<g id="Layer_2_1_">
</g>
</svg>
