<?xml version="1.0" encoding="utf-8"?>
<!-- Generator: Adobe Illustrator 25.2.0, SVG Export Plug-In . SVG Version: 6.00 Build 0)  -->
<svg version="1.1" id="Layer_1" xmlns="http://www.w3.org/2000/svg" xmlns:xlink="http://www.w3.org/1999/xlink" x="0px" y="0px"
	 viewBox="0 0 1080 1080" style="enable-background:new 0 0 1080 1080;" xml:space="preserve">
<style type="text/css">
	.st0{fill:#001B48;}
	.st1{fill:#018ABE;}
	.st2{fill:#808080;}
</style>
<g>
	<path class="st0" d="M470.5,446.9c0,27.8-0.3,55.6,0.2,83.4c0.1,8.4-2.3,11.1-10.9,11.3c-31.4,0.6-31.4,0.9-31.4-29.8
		c0-42.3,0-84.6,0-126.9c0-4.1,0.3-8.1,0.5-12.2c26.4-3.7,48.2-0.5,63.3,24.2c15.7,25.6,33.5,50,50.4,74.9
		c4.5,6.5,9.2,12.9,15.3,21.3c7.5-12.9,14.2-24.2,20.8-35.5c12.9-22,26.2-43.9,38.4-66.3c7.7-14.1,18.7-20.3,34.4-19.6
		c7.2,0.3,14.4,0.1,23.8,0.1c-2,4.4-3.2,7.7-4.9,10.7c-26.5,45.4-54.1,90.2-79.3,136.3c-17.9,32.9-49.2,27.3-64.9,2.5
		c-14.5-22.8-30.4-44.7-45.7-67c-2-3-4.5-5.6-6.8-8.4C472.5,446,471.5,446.4,470.5,446.9z"/>
</g>
<g>
	<g id="XMLID_544_">
		<path id="XMLID_1435_" class="st1" d="M535.8,657.3c0-1.9-1.4-3.4-3.2-3.6l0.4-56.6c0.6-0.2,1.1-0.7,1.1-1.4
			c0-0.8-0.7-1.5-1.5-1.5s-1.5,0.7-1.5,1.5c0,0.7,0.4,1.2,1,1.4l-0.4,56.6c-1.8,0.2-3.2,1.7-3.2,3.6c0,2,1.6,3.6,3.6,3.6
			C534.1,660.9,535.8,659.3,535.8,657.3z"/>
		<path id="XMLID_1449_" class="st1" d="M544.3,616c0,0.7,0.4,1.2,1,1.4l-0.1,21.1l9.5,9.7v4.4c-0.6,0.2-1,0.7-1,1.4
			c0,0.8,0.7,1.5,1.5,1.5s1.5-0.7,1.5-1.5c0-0.7-0.5-1.3-1.1-1.4v-4.7l-9.5-9.7l0.1-20.7c0.6-0.2,1.1-0.7,1.1-1.4
			c0-0.8-0.7-1.5-1.5-1.5S544.3,615.2,544.3,616z"/>
		<path id="XMLID_1452_" class="st1" d="M539.6,611.9c0,0.7,0.4,1.2,1.1,1.4l-0.2,26.8l10.4,10.5v1.9c-0.6,0.2-1,0.7-1,1.4
			c0,0.8,0.7,1.5,1.5,1.5s1.5-0.7,1.5-1.5c0-0.7-0.5-1.3-1.1-1.4v-2.2l-10.4-10.5l0.2-26.5c0.6-0.2,1.1-0.7,1.1-1.4
			c0-0.8-0.7-1.5-1.5-1.5C540.3,610.4,539.6,611,539.6,611.9z"/>
		<path id="XMLID_1453_" class="st1" d="M535.2,599.2c0,0.7,0.4,1.2,1,1.4l-0.3,40.9l10.2,10.3v0.7c-0.6,0.2-1.1,0.7-1.1,1.4
			c0,0.8,0.7,1.5,1.5,1.5s1.5-0.7,1.5-1.5c0-0.7-0.4-1.2-1-1.4v-1l-10.2-10.3l0.3-40.5c0.6-0.2,1.1-0.7,1.1-1.4
			c0-0.8-0.7-1.5-1.5-1.5C535.9,597.7,535.2,598.4,535.2,599.2z"/>
		<path id="XMLID_1455_" class="st1" d="M510.3,653.7c0-0.7-0.5-1.3-1.1-1.4V648l9.5-9.4l0.1-0.1l0.1-21.1c0.6-0.2,1-0.7,1-1.4
			c0-0.8-0.7-1.5-1.5-1.5s-1.5,0.7-1.5,1.5c0,0.7,0.4,1.2,1.1,1.4l-0.1,20.7l-9.5,9.4l-0.1,0.1v4.7c-0.6,0.2-1,0.7-1,1.4
			c0,0.8,0.7,1.5,1.5,1.5S510.3,654.5,510.3,653.7z"/>
		<path id="XMLID_1456_" class="st1" d="M514.2,653.7c0-0.7-0.5-1.3-1.2-1.5v-1.8l10.4-10.3l0.1-0.1l0.2-26.8
			c0.6-0.2,1.1-0.7,1.1-1.4c0-0.8-0.7-1.5-1.5-1.5s-1.5,0.7-1.5,1.5c0,0.7,0.4,1.2,1,1.4l-0.2,26.5L512.2,650l-0.1,0.1v2.3
			c-0.5,0.2-0.9,0.7-0.9,1.4c0,0.8,0.7,1.5,1.5,1.5C513.5,655.2,514.2,654.5,514.2,653.7z"/>
		<path id="XMLID_1458_" class="st1" d="M518.9,653.7c0-0.7-0.5-1.3-1.2-1.5v-0.6l10.2-10.1l0.1-0.1l0.3-40.9
			c0.6-0.2,1.1-0.7,1.1-1.4c0-0.8-0.7-1.5-1.5-1.5s-1.5,0.7-1.5,1.5c0,0.7,0.4,1.2,1,1.4l-0.3,40.5l-10.2,10.1l-0.1,0.1v1.1
			c-0.5,0.2-0.9,0.7-0.9,1.3c0,0.8,0.7,1.5,1.5,1.5C518.3,655.2,518.9,654.5,518.9,653.7z"/>
	</g>
	<g>
		<g>
			<path class="st0" d="M382.7,600.1v55.4h-12.5l-25.7-32.2v32.2h-13.7v-55.4h12.6l25.6,32.4v-32.4H382.7z"/>
			<path class="st0" d="M399.6,606.8c5.5-5.3,12.7-8,21.5-8s15.9,2.7,21.5,8c5.6,5.3,8.3,12.3,8.3,20.9s-2.8,15.6-8.3,20.9
				c-5.5,5.3-12.7,8-21.5,8s-15.9-2.7-21.5-8c-5.5-5.3-8.3-12.3-8.3-20.9S394,612.2,399.6,606.8z M409.8,639.5
				c2.9,3,6.6,4.5,11.2,4.5c4.6,0,8.3-1.5,11.2-4.5c2.9-3,4.4-6.9,4.4-11.8c0-4.8-1.5-8.7-4.4-11.7c-2.9-3-6.6-4.5-11.2-4.5
				c-4.6,0-8.3,1.5-11.2,4.5s-4.4,6.9-4.4,11.7C405.5,632.6,406.9,636.5,409.8,639.5z"/>
			<path class="st0" d="M487.8,655.4h-13.7l-23.5-55.3h15.6l14.8,37.1l14.9-37.1h15.5L487.8,655.4z"/>
			<path class="st0" d="M580.2,637.9L557.9,600h15.4l13.8,23.3l13.8-23.3h15.4l-22.2,37.9v17.5h-13.8v-17.5H580.2z"/>
			<path class="st1" d="M651.2,612.4v43.1h-13.8v-43.1h-18.6v-12.3h50.9v12.3H651.2z"/>
			<path class="st1" d="M683.1,621.9h24.5v11.7h-24.5v9.9h28.2v12h-41.9v-55.4h41.9v12h-28.2V621.9z"/>
			<path class="st1" d="M724.1,636.9v18.6h-13.7v-55.4h13.7v23.4h2.7l18.1-23.4h16.6l-20.1,25.8l21.4,29.6H746l-13.4-18.6
				L724.1,636.9L724.1,636.9z"/>
		</g>
		<g>
			<path class="st2" d="M441.8,695.9c0-0.6,0.5-1.1,1.1-1.1c0.6,0,1.1,0.5,1.1,1.1v11.6c0,0.6-0.5,1.1-1.1,1.1
				c-0.6,0-1.1-0.5-1.1-1.1V695.9z"/>
			<path class="st2" d="M465.9,697h-3.1v10.5c0,0.6-0.5,1.1-1.1,1.1c-0.6,0-1.1-0.5-1.1-1.1V697h-3.1c-0.6,0-1.1-0.5-1.1-1.1
				s0.5-1.1,1.1-1.1h8.4c0.6,0,1.1,0.5,1.1,1.1S466.5,697,465.9,697z"/>
			<path class="st2" d="M495.3,705.1c0.4-0.4,1-0.5,1.4-0.1c0.9,0.7,2.4,1.5,3.8,1.5c1,0,1.9-0.3,2.5-0.7c0.6-0.4,0.8-0.9,0.8-1.4
				c0-0.3-0.1-0.4-0.2-0.6c-0.1-0.2-0.3-0.4-0.6-0.6c-0.6-0.4-1.5-0.7-2.7-0.9l0,0c-0.9-0.2-1.8-0.4-2.5-0.8s-1.4-0.8-1.8-1.5
				c-0.3-0.5-0.5-1-0.5-1.6c0-1.2,0.7-2.2,1.6-2.9c0.9-0.7,2.1-1,3.4-1c1.9,0,3.3,0.9,4.3,1.6c0.5,0.3,0.6,0.9,0.3,1.4
				s-0.9,0.6-1.4,0.3c-1-0.7-2-1.3-3.2-1.3c-0.9,0-1.7,0.3-2.2,0.7s-0.7,0.8-0.7,1.2c0,0.2,0,0.4,0.1,0.5c0.1,0.2,0.3,0.3,0.5,0.5
				c0.5,0.4,1.4,0.7,2.5,0.9l0,0c1,0.2,1.9,0.5,2.7,0.8c0.8,0.4,1.5,0.9,2,1.6c0.3,0.5,0.5,1.1,0.5,1.7c0,1.3-0.7,2.3-1.7,3
				s-2.2,1.1-3.6,1.1c-2.1,0-3.9-1.1-5-2C495.1,706.2,495,705.6,495.3,705.1z"/>
			<path class="st2" d="M529.6,696.5c1.2,1.3,2,3,2,5s-0.8,3.7-2,5s-2.9,2.1-4.7,2.1c-1.9,0-3.6-0.8-4.8-2.1c-1.2-1.3-1.9-3-1.9-5
				s0.7-3.7,1.9-5s2.9-2.1,4.8-2.1C526.7,694.4,528.4,695.2,529.6,696.5z M529.3,701.5c0-1.3-0.5-2.6-1.3-3.4
				c-0.8-0.9-1.9-1.4-3.1-1.4c-1.3,0-2.4,0.5-3.2,1.4c-0.8,0.9-1.3,2.1-1.3,3.4s0.5,2.6,1.3,3.4c0.8,0.9,1.9,1.4,3.2,1.4
				c1.2,0,2.3-0.5,3.1-1.4C528.8,704.1,529.3,702.8,529.3,701.5z"/>
			<path class="st2" d="M545.2,707.5v-11.6c0-0.6,0.5-1.1,1.1-1.1s1.1,0.5,1.1,1.1v10.5h5.3c0.6,0,1.1,0.5,1.1,1.1s-0.5,1.1-1.1,1.1
				h-6.4l0,0l0,0C545.7,708.6,545.2,708.1,545.2,707.5z"/>
			<path class="st2" d="M571.8,708.6c-3.2,0-5.7-2.6-5.7-5.7v-7c0-0.6,0.5-1.1,1.1-1.1s1.1,0.5,1.1,1.1v7c0,1.9,1.6,3.5,3.5,3.5
				s3.5-1.6,3.5-3.5v-7c0-0.6,0.5-1.1,1.1-1.1s1.1,0.5,1.1,1.1v7C577.5,706,575,708.6,571.8,708.6z"/>
			<path class="st2" d="M600.4,697h-3.1v10.5c0,0.6-0.5,1.1-1.1,1.1s-1.1-0.5-1.1-1.1V697H592c-0.6,0-1.1-0.5-1.1-1.1
				s0.5-1.1,1.1-1.1h8.4c0.6,0,1.1,0.5,1.1,1.1C601.5,696.5,601,697,600.4,697z"/>
			<path class="st2" d="M614.7,695.9c0-0.6,0.5-1.1,1.1-1.1s1.1,0.5,1.1,1.1v11.6c0,0.6-0.5,1.1-1.1,1.1s-1.1-0.5-1.1-1.1V695.9z"/>
			<path class="st2" d="M641.2,696.5c1.2,1.3,2,3,2,5s-0.8,3.7-2,5s-2.9,2.1-4.7,2.1c-1.9,0-3.6-0.8-4.8-2.1s-1.9-3-1.9-5
				s0.7-3.7,1.9-5s2.9-2.1,4.8-2.1C638.3,694.4,640,695.2,641.2,696.5z M640.9,701.5c0-1.3-0.5-2.6-1.3-3.4
				c-0.8-0.9-1.9-1.4-3.1-1.4c-1.3,0-2.4,0.5-3.2,1.4s-1.3,2.1-1.3,3.4s0.5,2.6,1.3,3.4c0.8,0.9,1.9,1.4,3.2,1.4
				c1.2,0,2.3-0.5,3.1-1.4C640.4,704.1,640.9,702.8,640.9,701.5z"/>
			<path class="st2" d="M659,707.5c0,0.6-0.5,1.1-1.1,1.1s-1.1-0.5-1.1-1.1v-11.4l0,0c0-0.3,0.1-0.7,0.4-0.9
				c0.5-0.3,1.2-0.2,1.5,0.2l6.3,8.8v-8.1c0-0.6,0.5-1.1,1.1-1.1s1.1,0.5,1.1,1.1v11.4c0,0.6-0.5,1.1-1.1,1.1
				c-0.3,0-0.6-0.2-0.8-0.4l-0.1-0.1l-6.3-8.7L659,707.5L659,707.5z"/>
		</g>
	</g>
</g>
<g id="Layer_2_1_">
</g>
</svg>
