<?xml version="1.0" encoding="utf-8"?>
<!-- Generator: Adobe Illustrator 25.2.0, SVG Export Plug-In . SVG Version: 6.00 Build 0)  -->
<svg version="1.1" xmlns="http://www.w3.org/2000/svg" xmlns:xlink="http://www.w3.org/1999/xlink" x="0px" y="0px"
	 viewBox="0 0 1080 1080" style="enable-background:new 0 0 1080 1080;" xml:space="preserve">
<style type="text/css">
	.st0{fill:#2C2B68;}
	.st1{fill:#808080;}
	.st2{fill:none;stroke:#808080;stroke-width:3;stroke-miterlimit:10;}
</style>
<g id="Layer_2">
</g>
<g id="Layer_1">
	<g>
		<path class="st0" d="M454.9,452.9c0,27.8-0.3,55.6,0.2,83.4c0.1,8.4-2.3,11.1-10.9,11.3c-31.4,0.6-31.4,0.9-31.4-29.8
			c0-42.3,0-84.6,0-126.9c0-4.1,0.3-8.1,0.5-12.2c26.4-3.7,48.2-0.5,63.3,24.2c15.7,25.6,33.5,50,50.4,74.9
			c4.5,6.5,9.2,12.9,15.3,21.3c7.5-12.9,14.2-24.2,20.8-35.5c12.9-22,26.2-43.9,38.4-66.3c7.7-14.1,18.7-20.3,34.4-19.6
			c7.2,0.3,14.4,0.1,23.8,0.1c-2,4.4-3.2,7.7-4.9,10.7c-26.5,45.4-54.1,90.2-79.3,136.3c-17.9,32.9-49.2,27.3-64.9,2.5
			c-14.5-22.8-30.4-44.7-45.7-67c-2-3-4.5-5.6-6.8-8.4C456.9,452,455.9,452.4,454.9,452.9z"/>
		<path class="st0" d="M308.4,449.8c9.7,0,17.6,0,26.8,0c3,49.6,21,93.1,56.4,128.5c35.4,35.3,78.3,54.7,128.9,58.3
			c0,8.4,0,16.2,0,25.8c-51.5-1.6-96.2-20-135-53.1C337.1,568,312.7,514.9,308.4,449.8z"/>
		<path class="st0" d="M540.1,244.8c0-7.6,0-15.4,0-23.2c102-2.5,208.9,90.9,210.9,208.1c-8.1,0-16.2,0-24.4,0
			C711.2,321.6,649.2,260.6,540.1,244.8z"/>
	</g>
	<g id="XMLID_544_">
		<path id="XMLID_1435_" class="st0" d="M520.2,769.3c0-1.9-1.4-3.4-3.2-3.6l0.4-56.6c0.6-0.2,1.1-0.7,1.1-1.4
			c0-0.8-0.7-1.5-1.5-1.5c-0.8,0-1.5,0.7-1.5,1.5c0,0.7,0.4,1.2,1,1.4l-0.4,56.6c-1.8,0.2-3.2,1.7-3.2,3.6c0,2,1.6,3.6,3.6,3.6
			C518.5,772.9,520.2,771.3,520.2,769.3z"/>
		<path id="XMLID_1449_" class="st0" d="M528.7,728c0,0.7,0.4,1.2,1,1.4l-0.1,21.1l9.5,9.7l0,4.4c-0.6,0.2-1,0.7-1,1.4
			c0,0.8,0.7,1.5,1.5,1.5c0.8,0,1.5-0.7,1.5-1.5c0-0.7-0.5-1.3-1.1-1.4l0-4.7l-9.5-9.7l0.1-20.7c0.6-0.2,1.1-0.7,1.1-1.4
			c0-0.8-0.7-1.5-1.5-1.5C529.4,726.6,528.7,727.2,528.7,728z"/>
		<path id="XMLID_1452_" class="st0" d="M524,723.9c0,0.7,0.4,1.2,1.1,1.4l-0.2,26.8l10.4,10.5l0,1.9c-0.6,0.2-1,0.7-1,1.4
			c0,0.8,0.7,1.5,1.5,1.5c0.8,0,1.5-0.7,1.5-1.5c0-0.7-0.5-1.3-1.1-1.4l0-2.2l-10.4-10.5l0.2-26.5c0.6-0.2,1.1-0.7,1.1-1.4
			c0-0.8-0.7-1.5-1.5-1.5C524.7,722.4,524,723,524,723.9z"/>
		<path id="XMLID_1453_" class="st0" d="M519.6,711.2c0,0.7,0.4,1.2,1,1.4l-0.3,40.9l10.2,10.3l0,0.7c-0.6,0.2-1.1,0.7-1.1,1.4
			c0,0.8,0.7,1.5,1.5,1.5c0.8,0,1.5-0.7,1.5-1.5c0-0.7-0.4-1.2-1-1.4l0-1l-10.2-10.3l0.3-40.5c0.6-0.2,1.1-0.7,1.1-1.4
			c0-0.8-0.7-1.5-1.5-1.5C520.3,709.7,519.6,710.4,519.6,711.2z"/>
		<path id="XMLID_1455_" class="st0" d="M494.7,765.7c0-0.7-0.5-1.3-1.1-1.4l0-4.3l9.5-9.4l0.1-0.1l0.1-21.1c0.6-0.2,1-0.7,1-1.4
			c0-0.8-0.7-1.5-1.5-1.5c-0.8,0-1.5,0.7-1.5,1.5c0,0.7,0.4,1.2,1.1,1.4l-0.1,20.7l-9.5,9.4l-0.1,0.1l0,4.7c-0.6,0.2-1,0.7-1,1.4
			c0,0.8,0.7,1.5,1.5,1.5S494.7,766.5,494.7,765.7z"/>
		<path id="XMLID_1456_" class="st0" d="M498.6,765.7c0-0.7-0.5-1.3-1.2-1.5l0-1.8l10.4-10.3l0.1-0.1l0.2-26.8
			c0.6-0.2,1.1-0.7,1.1-1.4c0-0.8-0.7-1.5-1.5-1.5c-0.8,0-1.5,0.7-1.5,1.5c0,0.7,0.4,1.2,1,1.4l-0.2,26.5l-10.4,10.3l-0.1,0.1l0,2.3
			c-0.5,0.2-0.9,0.7-0.9,1.4c0,0.8,0.7,1.5,1.5,1.5C497.9,767.2,498.6,766.5,498.6,765.7z"/>
		<path id="XMLID_1458_" class="st0" d="M503.3,765.7c0-0.7-0.5-1.3-1.2-1.5l0-0.6l10.2-10.1l0.1-0.1l0.3-40.9
			c0.6-0.2,1.1-0.7,1.1-1.4c0-0.8-0.7-1.5-1.5-1.5c-0.8,0-1.5,0.7-1.5,1.5c0,0.7,0.4,1.2,1,1.4l-0.3,40.5l-10.2,10.1l-0.1,0.1l0,1.1
			c-0.5,0.2-0.9,0.7-0.9,1.3c0,0.8,0.7,1.5,1.5,1.5C502.7,767.2,503.3,766.5,503.3,765.7z"/>
	</g>
	<g>
		<path class="st0" d="M367.1,712.1v55.4h-12.5l-25.7-32.2v32.2h-13.7v-55.4h12.6l25.6,32.4v-32.4H367.1z"/>
		<path class="st0" d="M384,718.8c5.5-5.3,12.7-8,21.5-8s15.9,2.7,21.5,8s8.3,12.3,8.3,20.9s-2.8,15.6-8.3,20.9
			c-5.5,5.3-12.7,8-21.5,8s-15.9-2.7-21.5-8c-5.5-5.3-8.3-12.3-8.3-20.9S378.4,724.2,384,718.8z M394.2,751.5
			c2.9,3,6.6,4.5,11.2,4.5c4.6,0,8.3-1.5,11.2-4.5c2.9-3,4.4-6.9,4.4-11.8c0-4.8-1.5-8.7-4.4-11.7c-2.9-3-6.6-4.5-11.2-4.5
			c-4.6,0-8.3,1.5-11.2,4.5c-2.9,3-4.4,6.9-4.4,11.7C389.9,744.6,391.3,748.5,394.2,751.5z"/>
		<path class="st0" d="M472.2,767.4h-13.7L435,712.1h15.6l14.8,37.1l14.9-37.1h15.5L472.2,767.4z"/>
		<path class="st0" d="M564.6,749.9l-22.3-37.9h15.4l13.8,23.3l13.8-23.3h15.4l-22.2,37.9v17.5h-13.8V749.9z"/>
		<path class="st0" d="M635.6,724.4v43.1h-13.8v-43.1h-18.6v-12.3h50.9v12.3H635.6z"/>
		<path class="st0" d="M673.5,733.9H698v11.7h-24.5v9.9h28.2v12h-41.9v-55.4h41.9v12h-28.2V733.9z"/>
		<path class="st0" d="M724.5,748.8v18.6h-13.7v-55.4h13.7v23.4h2.7l18.1-23.4h16.6l-20.1,25.8l21.4,29.6h-16.8l-13.4-18.6H724.5z"
			/>
	</g>
	<g>
		<path class="st1" d="M426.2,807.9c0-0.6,0.5-1.1,1.1-1.1c0.6,0,1.1,0.5,1.1,1.1v11.6c0,0.6-0.5,1.1-1.1,1.1
			c-0.6,0-1.1-0.5-1.1-1.1V807.9z"/>
		<path class="st1" d="M450.3,809h-3.1v10.5c0,0.6-0.5,1.1-1.1,1.1c-0.6,0-1.1-0.5-1.1-1.1V809h-3.1c-0.6,0-1.1-0.5-1.1-1.1
			c0-0.6,0.5-1.1,1.1-1.1h8.4c0.6,0,1.1,0.5,1.1,1.1C451.4,808.5,450.9,809,450.3,809z"/>
		<path class="st1" d="M479.7,817.1c0.4-0.4,1-0.5,1.4-0.1c0.9,0.7,2.4,1.5,3.8,1.5c1,0,1.9-0.3,2.5-0.7c0.6-0.4,0.8-0.9,0.8-1.4
			c0-0.3-0.1-0.4-0.2-0.6c-0.1-0.2-0.3-0.4-0.6-0.6c-0.6-0.4-1.5-0.7-2.7-0.9h0c-0.9-0.2-1.8-0.4-2.5-0.8s-1.4-0.8-1.8-1.5
			c-0.3-0.5-0.5-1-0.5-1.6c0-1.2,0.7-2.2,1.6-2.9c0.9-0.7,2.1-1,3.4-1c1.9,0,3.3,0.9,4.3,1.6c0.5,0.3,0.6,0.9,0.3,1.4
			c-0.3,0.5-0.9,0.6-1.4,0.3c-1-0.7-2-1.3-3.2-1.3c-0.9,0-1.7,0.3-2.2,0.7c-0.5,0.4-0.7,0.8-0.7,1.2c0,0.2,0,0.4,0.1,0.5
			c0.1,0.2,0.3,0.3,0.5,0.5c0.5,0.4,1.4,0.7,2.5,0.9h0c1,0.2,1.9,0.5,2.7,0.8c0.8,0.4,1.5,0.9,2,1.6c0.3,0.5,0.5,1.1,0.5,1.7
			c0,1.3-0.7,2.3-1.7,3c-1,0.7-2.2,1.1-3.6,1.1c-2.1,0-3.9-1.1-5-2C479.5,818.2,479.4,817.6,479.7,817.1z"/>
		<path class="st1" d="M514,808.5c1.2,1.3,2,3,2,5s-0.8,3.7-2,5c-1.2,1.3-2.9,2.1-4.7,2.1c-1.9,0-3.6-0.8-4.8-2.1
			c-1.2-1.3-1.9-3-1.9-5s0.7-3.7,1.9-5c1.2-1.3,2.9-2.1,4.8-2.1C511.1,806.4,512.8,807.2,514,808.5z M513.7,813.5
			c0-1.3-0.5-2.6-1.3-3.4c-0.8-0.9-1.9-1.4-3.1-1.4c-1.3,0-2.4,0.5-3.2,1.4c-0.8,0.9-1.3,2.1-1.3,3.4s0.5,2.6,1.3,3.4
			c0.8,0.9,1.9,1.4,3.2,1.4c1.2,0,2.3-0.5,3.1-1.4C513.2,816.1,513.7,814.8,513.7,813.5z"/>
		<path class="st1" d="M529.6,819.5v-11.6c0-0.6,0.5-1.1,1.1-1.1s1.1,0.5,1.1,1.1v10.5h5.3c0.6,0,1.1,0.5,1.1,1.1
			c0,0.6-0.5,1.1-1.1,1.1h-6.4c0,0,0,0,0,0c0,0,0,0,0,0C530.1,820.6,529.6,820.1,529.6,819.5z"/>
		<path class="st1" d="M556.2,820.6c-3.2,0-5.7-2.6-5.7-5.7v-7c0-0.6,0.5-1.1,1.1-1.1c0.6,0,1.1,0.5,1.1,1.1v7
			c0,1.9,1.6,3.5,3.5,3.5c1.9,0,3.5-1.6,3.5-3.5v-7c0-0.6,0.5-1.1,1.1-1.1s1.1,0.5,1.1,1.1v7C561.9,818,559.4,820.6,556.2,820.6z"/>
		<path class="st1" d="M584.8,809h-3.1v10.5c0,0.6-0.5,1.1-1.1,1.1c-0.6,0-1.1-0.5-1.1-1.1V809h-3.1c-0.6,0-1.1-0.5-1.1-1.1
			c0-0.6,0.5-1.1,1.1-1.1h8.4c0.6,0,1.1,0.5,1.1,1.1C585.9,808.5,585.4,809,584.8,809z"/>
		<path class="st1" d="M599.1,807.9c0-0.6,0.5-1.1,1.1-1.1c0.6,0,1.1,0.5,1.1,1.1v11.6c0,0.6-0.5,1.1-1.1,1.1
			c-0.6,0-1.1-0.5-1.1-1.1V807.9z"/>
		<path class="st1" d="M625.6,808.5c1.2,1.3,2,3,2,5s-0.8,3.7-2,5c-1.2,1.3-2.9,2.1-4.7,2.1c-1.9,0-3.6-0.8-4.8-2.1
			c-1.2-1.3-1.9-3-1.9-5s0.7-3.7,1.9-5c1.2-1.3,2.9-2.1,4.8-2.1C622.7,806.4,624.4,807.2,625.6,808.5z M625.3,813.5
			c0-1.3-0.5-2.6-1.3-3.4c-0.8-0.9-1.9-1.4-3.1-1.4c-1.3,0-2.4,0.5-3.2,1.4c-0.8,0.9-1.3,2.1-1.3,3.4s0.5,2.6,1.3,3.4
			c0.8,0.9,1.9,1.4,3.2,1.4c1.2,0,2.3-0.5,3.1-1.4C624.8,816.1,625.3,814.8,625.3,813.5z"/>
		<path class="st1" d="M643.4,819.5c0,0.6-0.5,1.1-1.1,1.1c-0.6,0-1.1-0.5-1.1-1.1v-11.4c0,0,0,0,0,0c0-0.3,0.1-0.7,0.4-0.9
			c0.5-0.3,1.2-0.2,1.5,0.2l6.3,8.8v-8.1c0-0.6,0.5-1.1,1.1-1.1c0.6,0,1.1,0.5,1.1,1.1v11.4c0,0.6-0.5,1.1-1.1,1.1
			c-0.3,0-0.6-0.2-0.8-0.4c0,0-0.1-0.1-0.1-0.1l-6.3-8.7V819.5z"/>
	</g>
	<path class="st2" d="M752,450c-9.7,0-17.6,0-26.8,0c-3,49.6-21,93.1-56.4,128.5c-35.4,35.3-78.3,54.7-128.9,58.3
		c0,8.4,0,16.2,0,25.8c51.5-1.6,96.2-20,135-53.1C723.3,568.2,747.7,515,752,450z"/>
</g>
</svg>
